<?xml version="1.0" standalone="no"?><!DOCTYPE svg PUBLIC "-//W3C//DTD SVG 1.1//EN" "http://www.w3.org/Graphics/SVG/1.1/DTD/svg11.dtd"><svg t="1692339570519" class="icon" viewBox="0 0 1024 1024" version="1.1" xmlns="http://www.w3.org/2000/svg" p-id="4079" xmlns:xlink="http://www.w3.org/1999/xlink" width="200" height="200"><path d="M821.248 400.896c-66.56-100.352-180.224-166.912-309.248-166.912-129.024 0-243.2 66.56-309.248 166.912-16.896 25.6-30.208 52.736-40.448 81.92 10.24 28.672 23.552 56.32 40.448 81.92 66.56 100.352 180.224 166.912 309.248 166.912 129.024 0 243.2-66.56 309.248-166.912 16.896-25.6 30.208-52.736 40.448-81.92-9.728-28.672-23.552-56.32-40.448-81.92z m-309.248 286.72c-138.752 0-258.56-84.48-309.76-204.8 51.2-120.32 171.008-204.8 309.76-204.8s258.56 84.48 309.76 204.8c-51.2 120.32-171.008 204.8-309.76 204.8z" p-id="4080" fill="#707070"></path><path d="M512 346.112c-75.264 0-136.704 61.44-136.704 136.704S436.736 619.52 512 619.52s136.704-61.44 136.704-136.704-61.44-136.704-136.704-136.704z m0 229.376c-51.2 0-92.672-41.472-92.672-92.672S460.8 390.144 512 390.144s92.672 41.472 92.672 92.672-41.472 92.672-92.672 92.672z" p-id="4081" fill="#707070"></path></svg>